<?xml version="1.0" encoding="UTF-8"?>
<svg width="212px" height="607px" viewBox="0 0 212 607" version="1.1" xmlns="http://www.w3.org/2000/svg" xmlns:xlink="http://www.w3.org/1999/xlink">
    <!-- Generator: Sketch 56.3 (81716) - https://sketch.com -->
    <title>Character / Robot / 4</title>
    <desc>Created with Sketch.</desc>
    <g id="Page-1" stroke="none" stroke-width="1" fill="none" fill-rule="evenodd">
        <g id="Mockup" transform="translate(-119.000000, -2242.000000)">
            <g id="Character-/-Robot-/-4" transform="translate(63.000000, 2230.000000)">
                <g id="Robot-/-Legs-/-4" transform="translate(4.296364, 222.925887)">
                    <g id="Group-35" transform="translate(68.701299, 10.500000)">
                        <path d="M126.324513,193.116225 L116.542045,283.593225" id="Stroke-1" stroke="#19141E" stroke-width="23" stroke-linecap="round"></path>
                        <path d="M49.8115032,193.116225 L40.0290357,283.593225" id="Stroke-2" stroke="#19141E" stroke-width="23" stroke-linecap="round"></path>
                        <path d="M112.424299,30.918825 L125.961442,180.808575" id="Stroke-3" stroke="#19141E" stroke-width="23" stroke-linecap="round"></path>
                        <path d="M42.5646697,29.7834841 C42.5884614,25.020088 46.4525274,21.1779634 51.1953027,21.2017477 C55.9380779,21.2257536 59.76357,25.1066199 59.7398887,29.8700159 L58.9930251,179.379516 C58.9692334,184.142912 55.1051674,187.985037 50.3623921,187.961252 C45.6196169,187.937246 41.7941248,184.05638 41.8178061,179.292984 L42.5646697,29.7834841 Z" id="Stroke-8" fill="#19141E" fill-rule="nonzero"></path>
                        <g id="Legs-color" transform="translate(-0.000149, 0.000000)" fill="#6CA1FF" fill-rule="nonzero">
                            <path d="M81.4536269,362.709587 L83.314961,345.5406 L94.2475032,244.3959 C94.7851656,239.4234 99.2283474,235.8309 104.186789,236.3709 L142.450425,240.5484 C147.401399,241.0884 150.978347,245.5509 150.440685,250.5234 L140.083247,346.320624 C153.479948,349.410663 163.471455,361.455637 163.478922,375.8481 L163.478922,384.9831 L3.77298193e-12,384.9831 L0.985714286,375.8481 L4.27142857,345.5406 L15.2039708,244.3959 C15.7416331,239.4234 20.1848149,235.8309 25.1432565,236.3709 L63.4068929,240.5484 C68.3578669,241.0884 71.9348149,245.5509 71.3971526,250.5234 L61.0397149,346.320624 C70.0543767,348.399916 77.5271781,354.533973 81.4536269,362.709587 L81.4536269,362.709587 Z M42.4948417,43.7938509 C36.6927123,39.4698656 32.9055191,32.5508051 32.8796328,24.77895 C32.835711,11.7057 43.4493149,0.97395 56.4659708,0.93045 L109.972334,0.749567336 C122.98899,0.7062 133.674282,11.36595 133.717731,24.43845 C133.761653,37.51095 123.147302,48.2427 110.131393,48.28695 L59.6470926,48.4567811 L59.7399277,29.8700159 C59.7637193,25.1066199 55.9382273,21.2257536 51.195452,21.2018585 C46.4526767,21.1779634 42.5886108,25.020088 42.5648191,29.7834841 L42.4948417,43.7938509 L42.4948417,43.7938509 Z M69.6676721,185.482875 C69.6676721,197.392875 60.0539708,207.047625 48.196276,207.047625 C36.3378344,207.047625 26.7241331,197.392875 26.7241331,185.482875 C26.7241331,173.572875 36.3378344,163.918125 48.196276,163.918125 C60.0539708,163.918125 69.6676721,173.572875 69.6676721,185.482875 Z M148.621893,185.482875 C148.621893,197.392875 139.008192,207.047625 127.150497,207.047625 C115.292055,207.047625 105.678354,197.392875 105.678354,185.482875 C105.678354,173.572875 115.292055,163.918125 127.150497,163.918125 C139.008192,163.918125 148.621893,173.572875 148.621893,185.482875 Z" id="Legs"></path>
                        </g>
                        <path d="M84.3778666,375.780916 C84.375424,371.073165 83.3047557,366.616579 81.3961039,362.642403 L83.2574381,345.473416 L94.1899803,244.328716 C94.7276426,239.356216 99.1708244,235.763716 104.129266,236.303716 L142.392902,240.481216 C147.343876,241.021216 150.920824,245.483716 150.383162,250.456216 L140.025724,346.25344 C153.422425,349.343478 163.413932,361.388453 163.421399,375.780916 L163.421399,384.915916 L-1.49213975e-13,384.915916 L0.985714286,375.780916 L84.3778666,375.780916 Z" id="Path" fill="#000000" opacity="0.39718192"></path>
                        <path d="M148.609123,185.43975 C148.609123,197.34975 138.995422,207.0045 127.137727,207.0045 C115.279286,207.0045 105.665584,197.34975 105.665584,185.43975 C105.665584,173.52975 115.279286,163.875 127.137727,163.875 C138.995422,163.875 148.609123,173.52975 148.609123,185.43975" id="Fill-23" fill="#000000" opacity="0.401204427"></path>
                        <path d="M34.0119968,256.7295 C34.0119968,260.16975 31.2355682,262.95825 27.810211,262.95825 C24.3848539,262.95825 21.6076786,260.16975 21.6076786,256.7295 C21.6076786,253.28925 24.3848539,250.5 27.810211,250.5 C31.2355682,250.5 34.0119968,253.28925 34.0119968,256.7295 Z M31.8199026,277.042875 C31.8199026,280.483125 29.043474,283.272375 25.6181169,283.272375 C22.1927597,283.272375 19.4155844,280.483125 19.4155844,277.042875 C19.4155844,273.602625 22.1927597,270.814125 25.6181169,270.814125 C29.043474,270.814125 31.8199026,273.602625 31.8199026,277.042875 Z" id="Shape" fill="#000000" opacity="0.596656436"></path>
                        <path d="M27.5200974,353.9445 C27.5200974,358.47075 23.8669805,362.13975 19.3610714,362.13975 C14.8544156,362.13975 11.2012987,358.47075 11.2012987,353.9445 C11.2012987,349.419 14.8544156,345.75 19.3610714,345.75 C23.8669805,345.75 27.5200974,349.419 27.5200974,353.9445" id="Fill-25" fill="#000000" opacity="0.396019345"></path>
                    </g>
                </g>
                <g id="Robot-/-Body-/-4" transform="translate(0.541818, 84.079332)">
                    <g id="Group-18" transform="translate(55.500000, 48.714903)">
                        <path d="M149.878575,85.1591961 L183.502575,157.715172" id="Stroke-1" stroke="#19141E" stroke-width="16" stroke-linecap="round"></path>
                        <polygon id="Fill-8" fill="#19141E" points="84.15075 101.177106 110.22825 101.177106 110.22825 80.1922246 84.15075 80.1922246"></polygon>
                        <path d="M23.4882,165.225511 L30.70095,86.1237512" id="Stroke-12" stroke="#19141E" stroke-width="16" stroke-linecap="round"></path>
                        <g id="Body-color" fill="#6CA1FF" fill-rule="nonzero">
                            <path d="M190.446927,188.713848 L182.054373,196.200286 C181.670666,195.770757 181.064622,195.045803 180.309111,194.064708 C179.073609,192.460302 177.841609,190.683861 176.6862,188.769445 C173.566439,183.600268 171.538231,178.368731 171.18384,173.173034 C170.707355,166.187339 173.396715,159.976404 179.536062,155.499991 C185.680883,151.019524 192.085628,150.634019 197.566897,154.162197 C201.474812,156.677641 204.486625,160.849817 206.964472,166.221043 C208.215779,168.933498 209.251297,171.796765 210.095017,174.654754 C210.389543,175.652419 210.64017,176.581839 210.848394,177.422275 C210.977506,177.943403 211.066351,178.331755 211.116091,178.5662 L200.110709,180.89777 C200.086472,180.783536 200.025751,180.518112 199.928096,180.123955 C199.758373,179.438916 199.550628,178.668521 199.304742,177.835616 C198.604431,175.463405 197.748415,173.096472 196.747785,170.927407 C195.084134,167.321114 193.21689,164.734476 191.474772,163.613111 C190.025531,162.680265 188.661959,162.762339 186.167208,164.581375 C183.249464,166.708804 182.186472,169.163727 182.407798,172.408566 C182.620175,175.522199 184.041845,179.189238 186.319808,182.96363 C187.241494,184.490785 188.234953,185.923271 189.22491,187.208814 C189.567295,187.65343 189.881992,188.044743 190.159557,188.376767 C190.313856,188.561341 190.412787,188.675632 190.446927,188.713848 Z M51.5239802,81.1185537 L51.006825,82.1402212 C46.394325,91.2514069 35.162325,94.935003 26.045325,90.3265732 L24.508575,89.5501326 C15.391575,84.9417028 11.705325,73.7170397 16.317075,64.605854 L42.409575,13.0587417 C45.9193777,6.12348595 53.2662274,2.33295153 60.5960109,2.95042506 C64.0599233,1.53190122 67.8452529,0.749010367 71.804625,0.749010367 L122.574375,0.749010367 C129.708664,0.749010367 136.278023,3.29086095 141.420152,7.51306923 C148.200247,9.01463177 153.889169,14.2693058 155.5533,21.4490218 L168.6018,77.725227 C170.9073,87.6713112 164.65005,97.6945898 154.6968,99.9991795 L153.01905,100.3874 C143.538963,102.582432 133.988797,97.0143988 131.10884,87.8854184 C128.402627,88.7004582 125.537218,89.1388289 122.574375,89.1388289 L71.804625,89.1388289 C63.9881314,89.1388289 56.8499456,86.0877867 51.5239802,81.1185537 L51.5239802,81.1185537 Z M12.026959,193.888369 L0.796540999,194.551375 C0.78898493,194.42357 0.7797249,194.222601 0.771141872,193.954122 C0.629266193,189.516217 1.02990561,184.208181 2.46724844,178.96593 C5.51965273,167.833255 12.5631828,160.626264 24.1069498,161.080868 C30.6081713,161.337117 35.460024,164.047706 38.0539267,168.869523 C40.0741518,172.624927 40.4826022,177.136319 39.7713863,182.243055 C39.3283072,185.424492 38.4589709,188.729584 37.2902933,192.066037 C36.6981415,193.756568 36.0651042,195.350544 35.4298581,196.807399 C35.0412717,197.698572 34.7301395,198.362197 34.5349172,198.755104 L24.4585828,193.755708 C24.4788469,193.714924 24.5331364,193.602612 24.6165551,193.424685 C24.7652225,193.107587 24.9334626,192.736284 25.1163786,192.31679 C25.645685,191.102894 26.1772002,189.764548 26.6719641,188.352049 C27.6130132,185.665453 28.3001571,183.053029 28.6287753,180.693455 C29.4707237,174.648022 28.3137527,172.497324 23.6637449,172.314041 C18.2667241,172.101502 15.1355439,175.305348 13.3173647,181.936579 C12.7048138,184.170664 12.320019,186.614895 12.1311302,189.117466 C11.9998462,190.856837 11.9770822,192.396403 12.0154057,193.59517 C12.0206798,193.760147 12.025277,193.859918 12.026959,193.888369 Z" id="Body"></path>
                        </g>
                        <path d="M97.766775,60.1682261 L122.689275,60.1682261 C127.640025,60.1682261 131.689275,56.1211419 131.689275,51.1747056 L131.689275,36.5699778 C131.689275,31.6235415 127.640025,27.5764572 122.689275,27.5764572 L97.766775,27.5764572 C92.816025,27.5764572 88.766775,31.6235415 88.766775,36.5699778 L88.766775,51.1747056 C88.766775,56.1211419 92.816025,60.1682261 97.766775,60.1682261" id="Fill-11" fill="#19141E"></path>
                        <g id="Overlay" transform="translate(0.750000, 2.997840)" fill="#000000" fill-rule="nonzero" opacity="0.399181548">
                            <path d="M189.566753,185.313877 L181.174199,192.800315 C180.790492,192.370785 180.184448,191.645832 179.428937,190.664737 C178.193435,189.060331 176.961435,187.283889 175.806025,185.369474 C172.686265,180.200297 170.658057,174.96876 170.303666,169.773063 C169.827181,162.787368 172.516541,156.576432 178.655888,152.10002 C184.800709,147.619553 191.205454,147.234048 196.686722,150.762226 C200.594638,153.27767 203.606451,157.449846 206.084298,162.821071 C207.335605,165.533527 208.371123,168.396793 209.214843,171.254783 C209.509368,172.252448 209.759996,173.181868 209.96822,174.022304 C210.097332,174.543432 210.186177,174.931783 210.235917,175.166229 L199.230535,177.497799 C199.206298,177.383564 199.145577,177.118141 199.047922,176.723983 C198.878199,176.038945 198.670454,175.26855 198.424568,174.435645 C197.724257,172.063434 196.86824,169.6965 195.867611,167.527436 C194.20396,163.921143 192.336716,161.334505 190.594598,160.21314 C189.145357,159.280294 187.781784,159.362368 185.287034,161.181404 C182.36929,163.308833 181.306298,165.763755 181.527624,169.008594 C181.740001,172.122228 183.161671,175.789267 185.439634,179.563658 C186.36132,181.090813 187.354779,182.523299 188.344736,183.808842 C188.687121,184.253459 189.001818,184.644772 189.279382,184.976796 C189.433682,185.16137 189.532613,185.27566 189.566753,185.313877 Z M142.129293,78.2110467 C141.360574,81.2501739 142.607258,84.5613922 145.42231,86.2856025 C148.88956,88.4088228 153.42256,87.3213563 155.54731,83.8566025 C157.67206,80.3918487 156.58381,75.8621122 153.11656,73.7388919 C151.037192,72.4655613 148.574517,72.3472561 146.478017,73.203732 C149.790763,68.4097752 151.735285,62.6082902 151.735285,56.3749519 L151.735285,27.4810189 C151.735285,18.2490364 147.469869,9.96410913 140.811313,4.49676026 C147.591407,5.99832281 153.280329,11.2529968 154.94446,18.4327128 L167.99296,74.708918 C170.29846,84.6550023 164.04121,94.6782809 154.08796,96.9828705 L152.41021,97.3710908 C142.930124,99.5661235 133.379957,93.9980898 130.5,84.8691094 C134.880989,83.5496609 138.844766,81.2430551 142.129293,78.2110467 L142.129293,78.2110467 Z M41.5812276,10.1736291 C46.1922276,1.06244335 57.4257276,-2.62115276 66.5427276,1.98727704 L68.0787276,2.76371765 C77.1957276,7.37214745 80.8827276,18.5968105 76.2709776,27.7079963 L50.1784776,79.2551086 C45.5659776,88.3662943 34.3339776,92.0498904 25.2169776,87.4414606 L23.6802276,86.66502 C14.5632276,82.0565902 10.8769776,70.8319271 15.4887276,61.7207414 L41.5812276,10.1736291 Z M40.6855026,71.0285105 C41.8607526,67.1388129 39.6595026,63.0325213 35.7670026,61.857368 C31.8745026,60.6822146 27.7652526,62.8818798 26.5892526,66.7723269 C25.4132526,70.6620246 27.6152526,74.7675667 31.5077526,75.9434695 C35.4002526,77.1178734 39.5095026,74.9182081 40.6855026,71.0285105 Z M65.1703776,22.6568604 C66.3463776,18.7671628 64.1443776,14.6616207 60.2518776,13.4857179 C56.3593776,12.3105645 52.2501276,14.5109792 51.0741276,18.4006768 C49.8981276,22.2903744 52.1001276,26.3959166 55.9926276,27.5718194 C59.8851276,28.7469727 63.9943776,26.546558 65.1703776,22.6568604 Z M11.2826276,190.963899 L0.0522096002,191.626906 C0.0446535312,191.4991 0.0353935013,191.298131 0.0268104734,191.029652 C-0.115065205,186.591747 0.285574208,181.283711 1.72291704,176.04146 C4.77532133,164.908786 11.8188514,157.701795 23.3626184,158.156398 C29.8638399,158.412647 34.7156926,161.123237 37.3095953,165.945053 C39.3298204,169.700457 39.7382708,174.211849 39.0270549,179.318585 C38.5839758,182.500022 37.7146395,185.805115 36.5459619,189.141567 C35.9538101,190.832098 35.3207728,192.426074 34.6855267,193.882929 C34.2969403,194.774102 33.9858081,195.437727 33.7905858,195.830634 L23.7142514,190.831238 C23.7345155,190.790454 23.788805,190.678142 23.8722237,190.500215 C24.0208911,190.183117 24.1891312,189.811814 24.3720472,189.39232 C24.9013536,188.178424 25.4328688,186.840079 25.9276327,185.42758 C26.8686818,182.740983 27.5558257,180.128559 27.8844439,177.768986 C28.7263923,171.723552 27.5694213,169.572854 22.9194135,169.389572 C17.5223927,169.177032 14.3912125,172.380878 12.5730333,179.012109 C11.9604824,181.246194 11.5756876,183.690425 11.3867988,186.192996 C11.2555148,187.932367 11.2327508,189.471933 11.2710743,190.670701 C11.2763484,190.835677 11.2809456,190.935448 11.2826276,190.963899 Z" id="Shape"></path>
                        </g>
                        <g id="Overlay-parts" transform="translate(27.000000, 16.150864)" fill="#000000" opacity="0.601771763">
                            <path d="M14.4128419,57.8591566 C13.2368419,61.7488542 9.12759189,63.9485195 5.23509189,62.7741156 C1.34259189,61.5982128 -0.85940811,57.4926707 0.31659189,53.602973 C1.49259189,49.7125259 5.60184189,47.5128607 9.49434189,48.6880141 C13.3868419,49.8631674 15.5880919,53.969459 14.4128419,57.8591566 Z M38.8977169,9.48750651 C37.7217169,13.3772041 33.6124669,15.5776188 29.7199669,14.4024655 C25.8274669,13.2265627 23.6254669,9.12102055 24.8014669,5.23132293 C25.9774669,1.3416253 30.0867169,-0.858789386 33.9792169,0.316363962 C37.8717169,1.49226677 40.0737169,5.59780889 38.8977169,9.48750651 Z M129.291125,70.747447 C127.166375,74.2122008 122.633375,75.2996673 119.166125,73.176447 C115.699625,71.0532267 114.611375,66.5234902 116.736125,63.0587364 C118.860125,59.5947321 123.393125,58.5065161 126.860375,60.6297364 C130.327625,62.7529567 131.415875,67.2826932 129.291125,70.747447 Z" id="Shape"></path>
                        </g>
                    </g>
                </g>
                <g id="Robot-/-Head-/-4" transform="translate(85.394545, 0.020877)">
                    <g id="Group-24" transform="translate(-2.253968, 11.979058)">
                        <path d="M120.941175,72.718944 L120.941175,20.4258654" id="Stroke-1" stroke="#19141E" stroke-width="7"></path>
                        <path d="M125.663388,94.9146403 L103.965187,94.9146403 L103.965187,62.6857346 L125.663388,62.6857346 C134.557547,62.6857346 141.834108,69.9368079 141.834108,78.7998131 C141.834108,87.6628183 134.557547,94.9146403 125.663388,94.9146403" id="Fill-5" fill="#19141E"></path>
                        <g id="Face-color" transform="translate(16.529101, -0.000075)" fill="#6CA1FF" fill-rule="nonzero">
                            <path d="M92.7780139,10.1655925 C93.5286682,4.42951195 98.4514036,0 104.412299,0 C110.891707,0 116.144956,5.23484817 116.144956,11.6923089 C116.144956,18.1497696 110.891707,23.3846178 104.412299,23.3846178 C99.6728223,23.3846178 95.5896451,20.5843881 93.7380001,16.5536435 L85.5553757,10.3150555 L74.4210614,18.8040677 L63.2950002,10.3156196 L52.1656563,18.8042793 L41.0393639,10.3156549 L29.9108638,18.804244 L23.7681157,14.1183668 C22.6473937,19.4115812 17.9337365,23.3846178 12.2883344,23.3846178 C5.80817566,23.3846178 0.554926984,18.1497696 0.554926984,11.6923089 C0.554926984,5.23484817 5.80817566,0 12.2883344,0 C17.5709579,0 22.0377384,3.47882137 23.5082554,8.26286982 L29.9109563,13.1470471 L41.0396414,4.65831681 L52.1660263,13.1470118 L63.2953702,4.65835209 L74.4219862,13.1472234 L85.5553757,4.65891622 L92.7780139,10.1655925 Z M100.173787,118.73028 L15.7175968,118.73028 C8.9932582,118.73028 3.54241164,113.298526 3.54241164,106.59774 L3.54241164,51.002934 C3.54241164,44.3021487 8.9932582,38.8696461 15.7175968,38.8696461 L100.173787,38.8696461 C106.898126,38.8696461 112.348972,44.3021487 112.348972,51.002934 L112.348972,106.59774 C112.348972,113.298526 106.898126,118.73028 100.173787,118.73028 Z M92.3018032,129.734691 L23.5888296,129.734691 C20.5399619,129.734691 18.0673587,127.271497 18.0673587,124.23256 C18.0673587,121.193623 20.5399619,118.730429 23.5888296,118.730429 L92.3018032,118.730429 C95.3514222,118.730429 97.8232741,121.193623 97.8232741,124.23256 C97.8232741,127.271497 95.3514222,129.734691 92.3018032,129.734691 Z" id="Face"></path>
                        </g>
                        <g id="Overlay" transform="translate(34.596459, 4.658242)" fill="#000000">
                            <polygon id="Stroke-21" fill-rule="nonzero" opacity="0.404366629" points="22.9720052 5.65733812 11.8435051 14.1459272 5.7011107 9.50501592 5.41175239 3.58439741 11.8435976 8.48873025 22.9722827 -3.55271368e-15 34.0986675 8.48869497 45.2280115 3.52815637e-05 56.3546274 8.48890658 67.4880169 0.000599408776 74.6115333 5.65673871 75.7962584 11.933601 67.4880169 5.65673871 56.3537027 14.1457509 45.2276414 5.65730283 34.0982975 14.1459625"></polygon>
                            <path d="M74.2344444,125.076374 L5.5214709,125.076374 C2.47260317,125.076374 -6.82121026e-13,122.613181 -6.82121026e-13,119.574243 C-6.82121026e-13,116.535306 2.47260317,114.072113 5.5214709,114.072113 L74.2344444,114.072113 C77.2840635,114.072113 79.7559153,116.535306 79.7559153,119.574243 C79.7559153,122.613181 77.2840635,125.076374 74.2344444,125.076374" id="Fill-9" opacity="0.39562407"></path>
                        </g>
                        <path d="M16.1713206,94.9146403 L37.8687704,94.9146403 L37.8687704,62.6857346 L16.1713206,62.6857346 C7.2771619,62.6857346 -0.000150264551,69.9368079 -0.000150264551,78.7998131 C-0.000150264551,87.6628183 7.2771619,94.9146403 16.1713206,94.9146403" id="Fill-11" fill="#19141E"></path>
                        <path d="M120.941175,78.7998131 C120.941175,91.1232686 112.932074,101.113803 103.052931,101.113803 C93.1737884,101.113803 85.1654392,91.1232686 85.1654392,78.7998131 C85.1654392,66.4763576 93.1737884,56.4858236 103.052931,56.4858236 C112.932074,56.4858236 120.941175,66.4763576 120.941175,78.7998131" id="Fill-14" fill="#19141E"></path>
                        <polygon id="Fill-16" fill="#19141E" points="94.6471323 101.113728 103.052931 101.113728 103.052931 56.4857487 94.6471323 56.4857487"></polygon>
                        <path d="M112.535,78.7998131 C112.535,91.1232686 104.526651,101.113803 94.6467566,101.113803 C84.7676138,101.113803 76.7592646,91.1232686 76.7592646,78.7998131 C76.7592646,66.4763576 84.7676138,56.4858236 94.6467566,56.4858236 C104.526651,56.4858236 112.535,66.4763576 112.535,78.7998131" id="Fill-18" fill="#FFFFFF"></path>
                        <path d="M103.804554,77.3024309 C103.804554,81.6403471 100.985592,85.1576979 97.5077185,85.1576979 C94.0298455,85.1576979 91.2108825,81.6403471 91.2108825,77.3024309 C91.2108825,72.9645147 94.0298455,69.4471639 97.5077185,69.4471639 C100.985592,69.4471639 103.804554,72.9645147 103.804554,77.3024309" id="Fill-19" fill="#19141E"></path>
                        <path d="M28.8172095,72.718944 L28.8172095,22.8350785" id="Stroke-20" stroke="#19141E" stroke-width="7"></path>
                    </g>
                </g>
            </g>
        </g>
    </g>
</svg>