<?xml version="1.0" encoding="UTF-8"?>
<svg width="542px" height="618px" viewBox="0 0 542 618" version="1.1" xmlns="http://www.w3.org/2000/svg" xmlns:xlink="http://www.w3.org/1999/xlink">
    <title>Robot and Man</title>
    <g id="Page-1" stroke="none" stroke-width="1" fill="none" fill-rule="evenodd">
        <g id="Mockup" transform="translate(-779.000000, -275.000000)">
            <g id="Group-5" transform="translate(779.000000, 235.000000)">
                <g id="Character-/-Robot-/-2" transform="translate(369.500000, 335.500000) scale(-1, 1) translate(-369.500000, -335.500000) translate(195.000000, 0.000000)">
                    <g id="Robot-/-Legs-/-2" transform="translate(4.296364, 269.953027)">
                        <g id="Group-27" transform="translate(91.103896, 17.207090)">
                            <path d="M89.9549416,16.8378104 L103.492084,166.3547" id="Stroke-1" stroke="#19141E" stroke-width="16" stroke-linecap="round"></path>
                            <path d="M103.492383,179.859498 L97.8633571,351.738871" id="Stroke-6" stroke="#19141E" stroke-width="16" stroke-linecap="round"></path>
                            <path d="M36.1503994,15.7488261 L35.4036461,164.885664" id="Stroke-8" stroke="#19141E" stroke-width="16" stroke-linecap="round"></path>
                            <path d="M35.4036461,171.265454 L15.318224,356.572342" id="Stroke-10" stroke="#19141E" stroke-width="16" stroke-linecap="round"></path>
                            <g id="Legs-color" fill="#6CA1FF" fill-rule="nonzero">
                                <path d="M39.0448412,149.435343 C39.0786328,149.434894 39.1124521,149.434894 39.1462987,149.434894 C47.0887662,149.434894 53.526526,157.680083 53.526526,167.850969 C53.526526,178.021536 47.0891697,186.265779 39.1470455,186.266295 L31.2389286,186.266744 L31.2389286,186.259584 C23.4784631,185.993578 17.2514935,177.853958 17.2514935,167.850969 C17.2514935,157.84798 23.4784631,149.707636 31.2389286,149.441606 L31.2389286,149.435343 L31.5295071,149.435343 C31.5633018,149.434894 31.5971243,149.434894 31.630974,149.434894 C31.6648238,149.434894 31.6986463,149.434894 31.732441,149.435343 L39.0448412,149.435343 L39.0448412,149.435343 Z M106.377705,149.435343 C106.4115,149.434894 106.445322,149.434894 106.479172,149.434894 C114.420893,149.434894 120.859399,157.680083 120.859399,167.850969 C120.859399,178.021696 114.421095,186.266037 106.479545,186.266296 L98.5714286,186.266744 L98.5714286,186.259558 C90.8112863,185.993056 84.5839935,177.853637 84.5839935,167.850969 C84.5839935,157.848301 90.8112863,149.708158 98.5714286,149.441632 L98.5714286,149.435343 L98.8627538,149.435343 C98.8965486,149.434894 98.930371,149.434894 98.9642208,149.434894 C98.9980705,149.434894 99.031893,149.434894 99.0656877,149.435343 L106.377705,149.435343 L106.377705,149.435343 Z M39.8517565,21.1122011 C34.0562045,21.1122011 29.3150682,16.3622963 29.3150682,10.5560257 C29.3150682,4.75050336 34.0562045,-0.000149626866 39.8517565,-0.000149626866 L87.3265942,-0.000149626866 C93.1213994,-0.000149626866 97.8632825,4.75050336 97.8632825,10.5560257 C97.8632825,16.3622963 93.1213994,21.1122011 87.3265942,21.1122011 L39.8517565,21.1122011 Z M59.6254091,370.019683 L0.00014935065,370.019683 L9.42044156,345.848959 L59.6254091,370.019683 Z M145.86264,370.019683 L86.2373799,370.019683 L95.6576721,345.848959 L145.86264,370.019683 Z" id="Legs"></path>
                            </g>
                            <path d="M98.3705519,186.152276 C90.6104096,185.885774 84.3831169,177.746355 84.3831169,167.743687 C84.3831169,157.741018 90.6104096,149.600876 98.3705519,149.33435 L98.3705519,149.328061 L98.6618772,149.328061 C98.6956719,149.327612 98.7294944,149.327612 98.7633442,149.327612 C98.7971939,149.327612 98.8310164,149.327612 98.8648111,149.328061 L106.176828,149.328061 C106.210623,149.327612 106.244446,149.327612 106.278295,149.327612 C114.220016,149.327612 120.658523,157.5728 120.658523,167.743687 C120.658523,177.914413 114.220218,186.158755 106.278669,186.159013 L98.3705519,186.159462 L98.3705519,186.152276 Z M89.3329708,167.743687 C89.3329708,173.69734 92.552224,178.524302 96.522711,178.524302 C100.493945,178.524302 103.712451,173.69734 103.712451,167.743687 C103.712451,161.789285 100.493945,156.962323 96.522711,156.962323 C92.552224,156.962323 89.3329708,161.789285 89.3329708,167.743687 Z M31.1627597,186.227115 C23.4022943,185.961109 17.1753247,177.821489 17.1753247,167.8185 C17.1753247,157.815511 23.4022943,149.675167 31.1627597,149.409137 L31.1627597,149.402874 L31.4533382,149.402874 C31.487133,149.402425 31.5209554,149.402425 31.5548052,149.402425 C31.588655,149.402425 31.6224774,149.402425 31.6562722,149.402874 L38.9686724,149.402874 C39.002464,149.402425 39.0362833,149.402425 39.0701299,149.402425 C47.0125974,149.402425 53.4503571,157.647614 53.4503571,167.8185 C53.4503571,177.989067 47.0130009,186.23331 39.0708766,186.233826 L31.1627597,186.234275 L31.1627597,186.227115 L31.1627597,186.227115 Z M22.1248052,167.8185 C22.1248052,173.772153 25.3440584,178.599116 29.3145455,178.599116 C33.2857792,178.599116 36.5042857,173.772153 36.5042857,167.8185 C36.5042857,161.864099 33.2857792,157.037136 29.3145455,157.037136 C25.3440584,157.037136 22.1248052,161.864099 22.1248052,167.8185 Z" id="Shape" fill="#000000" opacity="0.403041295"></path>
                            <path d="M22.1412338,167.889573 C22.1412338,173.843226 25.360487,178.670188 29.330974,178.670188 C33.3022078,178.670188 36.5207143,173.843226 36.5207143,167.889573 C36.5207143,161.935172 33.3022078,157.108209 29.330974,157.108209 C25.360487,157.108209 22.1412338,161.935172 22.1412338,167.889573" id="Fill-26" fill="#000000" opacity="0.602887835"></path>
                            <path d="M89.3863636,167.739946 C89.3863636,173.693599 92.6056169,178.520562 96.5761039,178.520562 C100.547338,178.520562 103.765844,173.693599 103.765844,167.739946 C103.765844,161.785545 100.547338,156.958582 96.5761039,156.958582 C92.6056169,156.958582 89.3863636,161.785545 89.3863636,167.739946" id="Fill-22" fill="#000000" opacity="0.603864397"></path>
                            <polygon id="Fill-14" fill="#000000" opacity="0.395879836" points="59.6252597 370.182851 6.82121026e-13 370.182851 9.42029221 346.012127"></polygon>
                            <polygon id="Fill-16" fill="#000000" opacity="0.395879836" points="145.86249 370.182851 86.2372305 370.182851 95.6575227 346.012127"></polygon>
                        </g>
                    </g>
                    <g id="Robot-/-Body-/-2" transform="translate(0.541818, 129.605428)">
                        <g id="Group-25" transform="translate(2.250000, 0.000000)">
                            <path d="M266.1006,158.494686 L248.6481,30.6300572" id="Stroke-1" stroke="#19141E" stroke-width="27" stroke-linecap="round"></path>
                            <polygon id="Fill-9" fill="#19141E" points="103.5915 142.71428 212.424 142.71428 229.02 124.861392 86.9955 124.861392"></polygon>
                            <path d="M38.865975,154.244198 L57.264225,26.5114745" id="Stroke-11" stroke="#19141E" stroke-width="27" stroke-linecap="round"></path>
                            <g id="Body-color" transform="translate(0.000000, 0.748935)" fill="#6CA1FF" fill-rule="nonzero">
                                <path d="M257.719425,62.483797 L257.719425,98.5354091 C257.719425,114.896122 244.323675,128.282977 227.950425,128.282977 L88.065675,128.282977 C71.692425,128.282977 58.296675,114.896122 58.296675,98.5354091 L58.296675,59.6863404 C42.4283362,58.9729771 29.782425,45.8914555 29.782425,29.8584881 C29.782425,13.3681188 43.160175,0 59.662425,0 C65.4153811,0 70.788606,1.62467351 75.3476843,4.43991783 C79.209484,2.6014314 83.522981,1.57101814 88.065675,1.57101814 L227.950425,1.57101814 C232.993781,1.57101814 237.754636,2.84107682 241.928515,5.07694017 C242.562544,4.84878709 243.208548,4.64032897 243.866025,4.45246717 C259.732275,-0.0817660907 276.272775,9.0961216 280.808775,24.9509488 C285.345525,40.8065255 276.161775,57.3343678 260.295525,61.8678516 C259.438127,62.112837 258.57876,62.3177821 257.719425,62.483797 L257.719425,62.483797 Z M288.781676,302.754571 C292.848136,307.81528 295.174469,314.30894 294.898725,321.302589 C294.501225,331.388073 288.795975,340.009112 280.578225,344.586814 C277.333725,346.394511 273.432225,343.910051 273.586725,340.200973 C273.588225,340.174742 273.588975,340.148511 273.590475,340.121531 C274.080975,327.675997 267.621975,317.318459 259.161225,316.98495 C254.751975,316.811075 250.668225,319.392215 247.701225,323.663388 C245.099475,327.409939 239.258475,325.695924 239.111475,321.138457 C239.079225,320.132682 239.100225,319.114166 239.177475,318.086656 C239.688956,311.279546 242.685462,305.162316 247.225811,300.597757 C237.178603,293.519471 230.567334,281.852216 230.522925,268.703684 L230.251205,187.833948 C230.179425,166.294466 247.756425,148.612456 269.310675,148.539538 C290.865675,148.46781 308.561175,166.031406 308.633175,187.570887 L308.9049,268.440624 C308.954264,283.122211 300.803278,296.012204 288.781666,302.754577 L288.781676,302.754571 Z M31.1544175,303.605767 C17.4796935,298.304897 7.28958976,285.507234 6.130875,269.985786 L0.109125,189.340138 C-1.495125,167.859863 14.780625,148.97422 36.275625,147.371874 C57.770625,145.768779 76.669875,162.032062 78.274125,183.512337 L84.295125,264.157984 C85.3023352,277.644132 79.2621729,290.107228 69.3068365,297.912645 C76.1935441,302.798684 80.8121081,310.714757 81.1296,319.644109 C81.16635,320.673867 81.14685,321.692383 81.07485,322.69591 C80.74785,327.244383 74.84535,328.726815 72.39285,324.881336 C69.5961,320.496245 65.61735,317.756219 61.2051,317.756219 C52.73835,317.756219 45.8751,327.851446 45.8751,340.307472 L45.8751,340.386914 C45.8841,344.09899 41.88735,346.428312 38.7156,344.493956 C30.68535,339.596234 25.3251,330.757102 25.3251,320.664124 C25.3251,314.238991 27.4998491,308.321224 31.1544175,303.605767 L31.1544175,303.605767 Z M132.381,159.110892 L132.381,141.873311 L183.63525,141.873311 L183.63525,159.110892 L132.381,159.110892 Z" id="Body"></path>
                            </g>
                            <g id="Overlay" transform="translate(9.977816, 0.749460)" fill="#000000" opacity="0.394763765">
                                <path d="M71.1517837,319.643584 C71.1885337,320.673342 71.1690337,321.691859 71.0970337,322.695386 C70.7700337,327.243859 64.8675337,328.72629 62.4150337,324.880811 C59.6182837,320.49572 55.6395337,317.755694 51.2272837,317.755694 C42.7605337,317.755694 35.8972837,327.850921 35.8972837,340.306947 L35.8972837,340.38639 C35.9062837,344.098465 31.9095337,346.427787 28.7377837,344.493431 C20.7075337,339.59571 15.3472837,330.756578 15.3472837,320.663599 C15.3472837,304.977401 28.3095337,292.315273 44.1217837,292.789681 C58.6897837,293.226617 70.6342837,305.08907 71.1517837,319.643584 Z M208.144684,62.7447948 C208.144684,81.8560259 194.223934,97.7146004 175.962184,100.757408 C175.698934,100.712441 175.443934,100.667473 175.182184,100.615011 C157.302184,97.272419 143.772184,81.5862203 143.772184,62.7447948 C143.772184,43.9033693 157.302184,28.2171706 175.182184,24.8745788 C175.443934,24.8221166 175.698934,24.777149 175.962184,24.7321814 C194.223934,27.7749892 208.144684,43.6335637 208.144684,62.7447948 Z M147.063634,62.7962078 C147.063634,75.1263244 157.065634,85.1211235 169.404634,85.1211235 C181.743634,85.1211235 191.745634,75.1263244 191.745634,62.7962078 C191.745634,50.4660911 181.743634,40.4705425 169.404634,40.4705425 C157.065634,40.4705425 147.063634,50.4660911 147.063634,62.7962078 Z M19.6471837,29.8584881 C19.6471837,13.3681188 33.0249337,-4.54747351e-13 49.5271837,-4.54747351e-13 C66.0294337,-4.54747351e-13 79.4071837,13.3681188 79.4071837,29.8584881 C79.4071837,46.3488575 66.0294337,59.7169762 49.5271837,59.7169762 C33.0249337,59.7169762 19.6471837,46.3488575 19.6471837,29.8584881 Z M26.8564087,24.3239505 C26.8564087,32.323687 33.3461587,38.8087648 41.3516587,38.8087648 C49.3571587,38.8087648 55.8469087,32.323687 55.8469087,24.3239505 C55.8469087,16.324214 49.3571587,9.83913629 41.3516587,9.83913629 C33.3461587,9.83913629 26.8564087,16.324214 26.8564087,24.3239505 Z M231.897184,5.15556624 C232.531213,4.92741316 233.177216,4.71895504 233.834693,4.53109324 C249.700943,-0.00314002024 266.241443,9.17474767 270.777443,25.0295749 C275.314193,40.8851516 266.130443,57.4129939 250.264193,61.9464777 C249.406795,62.1914631 248.547428,62.3964082 247.688093,62.5624231 L247.688093,31.3972122 C247.688093,20.0754755 241.273799,10.1784304 231.897184,5.15556624 Z M278.802655,302.608122 C282.869115,307.66883 285.195449,314.162491 284.919704,321.15614 C284.522204,331.241624 278.816954,339.862663 270.599204,344.440365 C267.354704,346.248062 263.453204,343.763602 263.607704,340.054524 C263.609204,340.028293 263.609954,340.002062 263.611454,339.975082 C264.101954,327.529548 257.642954,317.17201 249.182204,316.838501 C244.772954,316.664626 240.689204,319.245766 237.722204,323.516939 C235.120454,327.26349 229.279454,325.549475 229.132454,320.992008 C229.100204,319.986233 229.121204,318.967717 229.198454,317.940207 C229.709935,311.133097 232.706442,305.015867 237.24679,300.451308 C227.199582,293.373022 220.588314,281.705767 220.543904,268.557235 L220.272184,187.687499 C220.200404,166.148017 237.777404,148.466006 259.331654,148.393089 C280.886654,148.321361 298.582154,165.884957 298.654154,187.424438 L298.925879,268.294175 C298.975243,282.975762 290.824257,295.865755 278.802645,302.608128 L278.802655,302.608122 Z M123.303934,93.6638438 C123.303934,89.4293946 126.739684,85.9961181 130.977184,85.9961181 C135.215434,85.9961181 138.650434,89.4293946 138.650434,93.6638438 C138.650434,97.8982931 135.215434,101.33157 130.977184,101.33157 C126.739684,101.33157 123.303934,97.8982931 123.303934,93.6638438 Z M101.126134,93.6638438 C101.126134,89.4293946 104.561884,85.9961181 108.798634,85.9961181 C113.036884,85.9961181 116.472634,89.4293946 116.472634,93.6638438 C116.472634,97.8982931 113.036884,101.33157 108.798634,101.33157 C104.561884,101.33157 101.126134,97.8982931 101.126134,93.6638438 Z M0.0233587071,195.330197 C-0.304391293,191.107739 2.85535871,187.420396 7.08085871,187.092882 C11.3063587,186.766117 14.9971087,189.923592 15.3241087,194.145301 C15.6518587,198.367759 12.4913587,202.055102 8.26660871,202.382616 C4.04110871,202.709381 0.351108707,199.551906 0.0233587071,195.330197 Z M1.66398371,216.482358 C1.33623371,212.2599 4.49598371,208.572557 8.72073371,208.245043 C12.9462337,207.918278 16.6369837,211.075753 16.9639837,215.297462 C17.2917337,219.519919 14.1319837,223.207263 9.90648371,223.534777 C5.68098371,223.861541 1.99173371,220.704066 1.66398371,216.482358 Z M3.34345871,238.146025 C3.01570871,233.924317 6.17545871,230.236224 10.4009587,229.90871 C14.6264587,229.581945 18.3164587,232.73942 18.6434587,236.961129 C18.9712087,241.183587 15.8114587,244.871679 11.5867087,245.198444 C7.36120871,245.525958 3.67120871,242.368483 3.34345871,238.146025 Z M122.022184,158.885529 L122.022184,141.647948 L173.772184,141.647948 L173.772184,158.885529 L122.022184,158.885529 Z" id="Shape"></path>
                            </g>
                            <path d="M185.75985,101.556408 C204.0216,98.5135998 217.94235,82.6550253 217.94235,63.5437942 C217.94235,44.4325631 204.0216,28.5739886 185.75985,25.5311808 C187.82985,25.1864292 189.9591,25.0065587 192.12735,25.0065587 C213.4266,25.0065587 230.69235,42.2591289 230.69235,63.5437942 C230.69235,84.8284594 213.4266,102.08103 192.12735,102.08103 C189.9591,102.08103 187.82985,101.901159 185.75985,101.556408 L185.75985,101.556408 Z" id="Path" fill="#19141E"></path>
                        </g>
                    </g>
                    <g id="Robot-/-Head-/-2" transform="translate(85.394545, 0.515658)">
                        <g id="Group-31" transform="translate(6.010582, 38.931937)">
                            <path d="M113.202701,38.3677236 L90.3136529,38.3677236" id="Stroke-3" stroke="#19141E" stroke-width="5" stroke-linecap="round"></path>
                            <path d="M43.3329905,7.2612555 C38.9813291,7.2612555 35.4200593,10.8093026 35.4200593,15.1464702" id="Stroke-8" stroke="#FFFFFF" stroke-width="5" stroke-linecap="round"></path>
                            <path d="M9.4097164,38.3677236 L37.5625312,38.3677236" id="Stroke-12" stroke="#19141E" stroke-width="5" stroke-linecap="round"></path>
                            <g id="Face-color" transform="translate(-0.000150, 0.748317)" fill="#6CA1FF" fill-rule="nonzero">
                                <path d="M112.148745,79.736894 C116.304982,80.0321248 119.585037,83.4858861 119.585037,87.7027236 L119.585037,91.2926974 L12.712381,91.2926974 L12.712381,87.7027236 C12.712381,83.4859063 15.9917182,80.0321579 20.1485228,79.7368982 L20.1485228,78.3148859 C20.1485228,73.4543804 23.7121003,69.3831399 28.3643122,68.5674386 L28.3643122,9.94486387 C28.3643122,4.4749267 32.8557196,0 38.3441323,0 L93.9532857,0 C99.4424497,0 103.933106,4.4749267 103.933106,9.94486387 L103.933106,68.567465 C108.585244,69.3832275 112.148745,73.4544327 112.148745,78.3148859 L112.148745,79.736894 L112.148745,79.736894 Z M129.113462,37.6194068 C129.113462,42.9553283 124.773071,47.2812654 119.418394,47.2812654 C114.063716,47.2812654 109.722574,42.9553283 109.722574,37.6194068 C109.722574,32.2834853 114.063716,27.9582969 119.418394,27.9582969 C124.773071,27.9582969 129.113462,32.2834853 129.113462,37.6194068 Z M2.98427949e-13,37.6194068 C2.98427949e-13,32.2834853 4.34114286,27.9582969 9.69582011,27.9582969 C15.0504974,27.9582969 19.3916402,32.2834853 19.3916402,37.6194068 C19.3916402,42.9553283 15.0504974,47.2812654 9.69582011,47.2812654 C4.34114286,47.2812654 2.98427949e-13,42.9553283 2.98427949e-13,37.6194068 Z" id="Face"></path>
                            </g>
                            <g id="Overlay" transform="translate(-0.000150, 28.706614)" fill="#000000" opacity="0.395926339">
                                <path d="M20.1485228,51.7786014 L20.1485228,49.3120804 C20.583844,44.8393091 24.6173905,40.4603901 30.0795069,40.4603901 L102.217761,40.4603901 C107.679877,40.4603901 111.544156,44.5028916 112.148745,48.9896461 L112.148745,51.7785971 C116.304982,52.073828 119.585037,55.5275893 119.585037,59.7444267 L119.585037,63.3344005 L12.712381,63.3344005 L12.712381,59.7444267 C12.712381,55.5276095 15.9917182,52.0738611 20.1485228,51.7786014 L20.1485228,51.7786014 Z M129.113462,9.66110995 C129.113462,14.9970314 124.773071,19.3229686 119.418394,19.3229686 C114.063716,19.3229686 109.722574,14.9970314 109.722574,9.66110995 C109.722574,4.32518848 114.063716,-1.77635684e-15 119.418394,-1.77635684e-15 C124.773071,-1.77635684e-15 129.113462,4.32518848 129.113462,9.66110995 Z M1.30917499e-12,9.66110995 C1.30917499e-12,4.32518848 4.34114286,-1.77635684e-15 9.69582011,-1.77635684e-15 C15.0504974,-1.77635684e-15 19.3916402,4.32518848 19.3916402,9.66110995 C19.3916402,14.9970314 15.0504974,19.3229686 9.69582011,19.3229686 C4.34114286,19.3229686 1.30917499e-12,14.9970314 1.30917499e-12,9.66110995 Z" id="Shape"></path>
                            </g>
                            <path d="M20.7815873,80.7225267 L111.923799,80.7225267" id="Stroke-19" stroke="#19141E" stroke-width="5"></path>
                            <path d="M43.9199989,54.1242272 L103.932655,54.1242272" id="Stroke-21" stroke="#19141E" stroke-width="7"></path>
                            <path d="M59.6049132,25.6959021 C55.3749661,29.1653366 54.7686487,35.3951953 58.2502783,39.6103262 C61.7319079,43.8254571 67.9836646,44.4296508 72.2136116,40.9602162 C76.4435587,37.4907817 77.0498762,31.260923 73.5682466,27.0457921 C70.0866169,22.8306613 63.8348603,22.2264675 59.6049132,25.6959021" id="Fill-23" fill="#FFFFFF"></path>
                            <path d="M64.9056455,29.9278037 C62.9627249,31.521767 62.6839841,34.3832644 64.2835503,36.3201283 C65.8831164,38.2562435 68.754672,38.5340079 70.6975926,36.9400445 C72.6412646,35.3460812 72.9200053,32.4845838 71.3204392,30.5477199 C69.720873,28.6116047 66.8485661,28.3338403 64.9056455,29.9278037" id="Fill-25" fill="#19141E"></path>
                            <path d="M85.698728,25.6959021 C81.468781,29.1653366 80.8624635,35.3951953 84.3440931,39.6103262 C87.8257228,43.8254571 94.0774794,44.4296508 98.3074265,40.9602162 C102.537374,37.4907817 103.143691,31.260923 99.6620614,27.0457921 C96.1804317,22.8306613 89.9286751,22.2264675 85.698728,25.6959021" id="Fill-27" fill="#FFFFFF"></path>
                            <path d="M90.9994603,29.9278037 C89.0565397,31.521767 88.7777989,34.3832644 90.3773651,36.3201283 C91.9769312,38.2562435 94.8484868,38.5340079 96.7914074,36.9400445 C98.7350794,35.3460812 99.0138201,32.4845838 97.414254,30.5477199 C95.8146878,28.6116047 92.942381,28.3338403 90.9994603,29.9278037" id="Fill-29" fill="#19141E"></path>
                        </g>
                    </g>
                </g>
                <g id="Group-3" transform="translate(0.000000, 258.000000)">
                    <g id="Character-/-Man-/-2" transform="translate(43.000000, 28.000000)">
                        <g id="Man-/-Head-/-2" transform="translate(80.113402, 0.766764)">
                            <g id="Group-20" transform="translate(15.911330, 21.968912)">
                                <g id="Face-color" transform="translate(-0.000099, 9.533730)" fill="#E576C6" fill-rule="nonzero">
                                    <path d="M29.5426283,48.1925388 L29.1846233,35.9692194 C29.1846233,35.9692194 44.2193228,37.1519051 47.4357145,35.5012824 C47.4357145,35.5012824 50.6125371,15.3785009 46.5832859,3.98123749 L14.855382,0.314800079 L12.5373943,18.57514 C11.4686554,15.4607715 3.18781299,11.6558515 0.881884415,16.1155855 C-4.11473381,25.7792112 13.7512194,32.2860301 13.7512194,32.2860301 L11.9370765,48.3395834" id="Face"></path>
                                </g>
                                <path d="M13.6550172,29.185283 C10.6291326,25.0824596 6.71177919,23.9465763 5.63080196,23.7021057 C4.31291247,17.8614114 2.76452263,2.74110234 21.218236,0.342483746 C43.2494823,-2.52097819 46.5830734,13.5150787 46.5830734,13.5150787 L18.2034576,13.1714782 L18.2034576,28.0620758 L13.6550172,29.185283 L13.6550172,29.185283 Z" id="Hair" fill="#FCBDA4" fill-rule="nonzero"></path>
                                <polygon id="Fill-4" fill="#000000" opacity="0.402157738" points="29.1844485 45.5028 19.0465027 43.3552036 29.1354584 50.0887319"></polygon>
                                <polygon id="Fill-6" fill="#405FD3" points="37.5472175 25.5278822 41.0507667 33.9894644 36.8515574 34.042326"></polygon>
                                <path d="M33.5527869,27.9325276 C33.7615603,29.0720306 32.9954298,30.1627669 31.8422771,30.3686294 C30.6887475,30.5748642 29.584585,29.8180496 29.3761884,28.6789188 C29.167415,27.5394159 29.9335456,26.4486796 31.0866983,26.2424448 C32.2402278,26.0365823 33.3440135,26.7930247 33.5527869,27.9325276" id="Fill-8" fill="#0D0B6D"></path>
                                <path d="M44.5715002,27.9325276 C44.7802736,29.0720306 44.0141431,30.1627669 42.8609904,30.3686294 C41.7074608,30.5748642 40.6032983,29.8180496 40.3949017,28.6789188 C40.1861283,27.5394159 40.9522589,26.4486796 42.1054116,26.2424448 C43.2589411,26.0365823 44.3627268,26.7930247 44.5715002,27.9325276" id="Fill-10" fill="#0D0B6D"></path>
                                <g id="Group-15" transform="translate(33.162562, 36.281686)">
                                    <path d="M0.0284519704,0.156611861 C0.0284519704,0.156611861 1.49589532,2.50746497 4.40251847,2.30830322" id="Fill-12" fill="#FFFFFF"></path>
                                    <path d="M0.0284519704,0.156611861 C0.0284519704,0.156611861 1.49589532,2.50746497 4.40251847,2.30830322" id="Stroke-14" stroke="#252535" stroke-width="4"></path>
                                </g>
                            </g>
                        </g>
                        <g id="Man-/-Legs-/-2" transform="translate(0.089838, 75.810496)">
                            <g id="Group-28" transform="translate(60.853782, 75.909218)">
                                <g id="Shoes" transform="translate(2.094158, 190.818187)" fill="#0D0B6D" fill-rule="nonzero">
                                    <path d="M70.4545447,6.5865691 L70.3365293,16.7275367 C70.3365293,16.7275367 93.0842,20.3085881 100.795374,28.9911487 L55.4749633,28.9911487 L57.373253,5.68434189e-14 L70.4545447,6.5865691 Z M17.841998,5.73213917 L17.7244011,17.1228725 C17.7244011,17.1228725 27.3054073,18.3730546 31.2053548,28.9912736 L0.186564714,28.9912736 L3.28886221,16.4932005 L5.30014534,14.4954911 L17.841998,5.73213917 Z"></path>
                                </g>
                                <g id="Legs" transform="translate(5.382686, 192.621290)" fill="#E576C6" fill-rule="nonzero">
                                    <path d="M54.0848093,0.854055128 L67.166101,4.78367488 L67.0480856,14.9242261 L53.0306224,14.2945541 L54.0848093,0.854055128 Z M2.72816369,5.68434189e-14 L15.8090369,3.9292033 L14.4359574,15.3195202 L-6.75015599e-14,14.6898482 L2.72816369,5.68434189e-14 Z" id="Skin"></path>
                                </g>
                                <g id="Pants" transform="translate(0.001478, 0.000000)" fill="#2F2F3D" fill-rule="nonzero">
                                    <polygon points="33.7890243 191.769192 35.8423542 191.769192 34.5868716 203.486005 1.13686838e-13 203.486005 1.2554826 191.769192 3.54391731 191.769192 29.2964772 0.000166579896 45.4762049 0.000105913523 84.8292291 0 81.5613001 191.9775 83.3253338 191.9775 83.3253338 203.277864 48.7388807 203.277864 48.7388807 191.9775 50.6959796 191.9775 48.7384155 119.980512"></polygon>
                                </g>
                                <polygon id="Fill-15" fill="#000000" opacity="0.200358073" points="48.1608281 126.636369 62.5720944 33.7930641 49.467367 153.453234"></polygon>
                            </g>
                        </g>
                        <g id="Man-/-Body-/-3" transform="translate(55.522828, 60.384840)">
                            <g id="Group-35" transform="translate(8.358974, 12.818182)">
                                <g id="Hands" transform="translate(0.000000, 86.761187)" fill="#E576C6" fill-rule="nonzero">
                                    <path d="M88.2787521,3.10530792 C89.3503726,0.681431085 94.9797238,2.13162821e-14 94.9797238,2.13162821e-14 C94.9797238,2.13162821e-14 103.963532,9.94980352 104.767665,11.4689648 C105.57138,12.9881261 107.058442,20.5103314 106.987808,21.9964135 C106.916757,23.4824956 102.283796,30.1603548 102.283796,30.1603548 C99.4091444,29.4830587 101.28657,26.0337273 101.28657,26.0337273 C101.28657,26.0337273 98.7115879,28.1288798 97.6412213,28.0937331 C87.5598803,27.7629413 88.09987,22.8523372 88.3385187,22.237478 C88.873911,20.8564223 91.5646649,22.4355396 91.5646649,22.4355396 C91.5646649,22.4355396 85.2139341,10.0395308 88.2787521,3.10530792 Z M15.1113956,5.10490293 L16.9390854,8.55754223 C16.9390854,8.55754223 17.871529,10.1478238 18.8478572,12.9231669 C19.8237674,15.6989235 19.4179392,17.3971258 21.5298341,21.7565481 C23.92677,26.7051933 19.6390341,24.6646214 18.1022367,22.504551 C16.9023059,20.8187534 17.0385572,18.5395979 15.4829521,17.5182783 C14.96177,18.3456713 13.7706162,19.5294924 13.1060777,26.6696331 C12.9869623,27.9502109 13.5700008,32.1041287 13.5700008,32.1041287 C13.5829572,33.3487328 13.7430315,35.9442079 12.3194982,36.3403311 C11.9667495,36.4387416 11.5074238,36.0508883 11.5074238,36.0508883 C11.5074238,36.0508883 11.6453469,37.6746625 10.1900495,37.9980114 C9.61787769,38.1249528 8.48189308,34.6185598 8.48189308,34.6185598 C8.48189308,34.6185598 8.30886231,36.3990466 7.22219564,36.5971082 C6.91500333,36.6533428 3.28804436,26.493073 3.28804436,26.493073 L3.50621359,28.7875276 L3.98727256,31.1378032 C3.98727256,31.1378032 3.94882128,32.4030818 2.92777256,32.6271933 C2.52236231,32.7156801 1.74414179,30.6056419 1.01482128,28.1230496 C-0.119491538,24.2602284 -0.096504359,21.357944 0.237018718,18.4709587 C0.640339231,14.9827592 0.460621282,13.8109293 2.02124179,9.53337801 C2.66488282,7.76860381 4.06835462,5.10118152 4.81146744,3.96408475 L15.1113956,5.10490293 Z"></path>
                                </g>
                                <path d="M93.6235221,95.7195246 C93.6235221,95.7195246 95.0378605,100.860443 99.8931708,102.462715 C101.590878,103.022994 101.166661,109.635108 105.327758,108.844516" id="Stroke-3" stroke="#000000" stroke-width="3" opacity="0.147530692"></path>
                                <g id="Shirt" fill="#FCBDA4" fill-rule="nonzero">
                                    <path d="M39.8664575,8.18508974 L42.2597979,4.13489736e-05 L54.2131313,0.736053079 L58.3550031,7.46353109 L62.4968749,1.24464545 L65.4768492,1.42658094 L66.4792218,9.22129189 C67.0156939,9.43944377 67.5273357,9.65759564 68.01827,9.87574751 C68.6953469,10.177595 69.330629,10.4753076 69.9282956,10.7771551 L69.9617315,10.7936947 C78.4210136,15.0398208 79.6288854,19.3777416 82.2953982,24.8316713 C85.7142187,31.8109645 89.2542444,53.2508208 89.2542444,53.2508208 L104.091424,90.2581522 L85.9022956,100.272874 L81.4302444,91.7053663 L81.5430905,80.2682402 L54.9991674,80.2682402 L52.0568085,80.2641053 L25.9600905,80.2641053 L25.5713982,66.1806449 L20.8360392,94.4302636 L0.04727,95.401551 C0.04727,95.401551 -0.362319744,65.9821698 3.59565462,48.9625188 C6.11588538,38.1212314 18.4286546,17.9755979 30.0894238,11.0496449 C31.9534751,9.94190587 34.4277315,9.16413167 37.1903726,8.6270085 C38.0580503,8.45603674 38.9536408,8.30961159 39.8664574,8.18508992 L39.8664575,8.18508974 Z M55.4942695,83.1933079 C55.4942695,84.1302757 54.7269156,84.8894428 53.7798438,84.8894428 C52.8327721,84.8894428 52.0650003,84.1302757 52.0650003,83.1933079 C52.0650003,82.2563402 52.8327721,81.4967595 53.7798438,81.4967595 C54.7269156,81.4967595 55.4942695,82.2563402 55.4942695,83.1933079 Z M74.3552503,83.2877903 C74.3552503,84.2247581 73.5878964,84.9839252 72.6404067,84.9839252 C71.6937528,84.9839252 70.925981,84.2247581 70.925981,83.2877903 C70.925981,82.3504091 71.6937528,81.5912419 72.6404067,81.5912419 C73.5878964,81.5912419 74.3552503,82.3504091 74.3552503,83.2877903 Z" id="Shape"></path>
                                </g>
                                <polyline id="Stroke-9" stroke="#000000" stroke-width="5" opacity="0.197265625" points="25.6611318 69.3631927 29.4874523 49.5987968 38.9502292 33.737744"></polyline>
                                <path d="M80.7073185,80.3493669 L82.5149467,51.5506337" id="Stroke-11" stroke="#000000" stroke-width="5" opacity="0.195754278"></path>
                                <g id="Shirt-shadow" transform="translate(48.064103, 2.398985)" fill="#EA847A" fill-rule="nonzero">
                                    <path d="M0.260758205,10.2549589 L3.49693513,2.84217094e-14 L8.94740436,6.43059238 L0.260758205,10.2549589 Z M11.1935444,6.33044516 L16.4057828,0.822761877 L18.1682726,10.3809906 L11.1935444,6.33044516 Z"></path>
                                </g>
                                <path d="M18.7147823,91.1206918 C18.7147823,92.0340906 17.9662362,92.7746507 17.0429874,92.7746507 C16.1197387,92.7746507 15.3711926,92.0340906 15.3711926,91.1206918 C15.3711926,90.207293 16.1197387,89.4667328 17.0429874,89.4667328 C17.9662362,89.4667328 18.7147823,90.207293 18.7147823,91.1206918" id="Fill-19" fill="#000000" opacity="0.198451451"></path>
                                <path d="M101.147435,88.9575202 C101.147435,89.8713326 100.398889,90.6114792 99.47564,90.6114792 C98.5523913,90.6114792 97.8038451,89.8713326 97.8038451,88.9575202 C97.8038451,88.0441214 98.5523913,87.3035613 99.47564,87.3035613 C100.398889,87.3035613 101.147435,88.0441214 101.147435,88.9575202" id="Fill-21" fill="#000000" opacity="0.199032738"></path>
                                <path d="M0.0371138462,86.4765818 L22.2427292,85.501573" id="Stroke-23" stroke="#000000" stroke-width="4" opacity="0.202566964"></path>
                                <path d="M81.5432159,92.095866 L100.659772,81.6953587" id="Stroke-25" stroke="#000000" stroke-width="4" opacity="0.198683966"></path>
                                <path d="M54.9992092,80.2681988 L52.0568503,80.2640639 C51.8854913,45.0057941 46.0467477,21.482363 37.1904144,8.62696716 L37.1904144,8.62283226 L40.1745682,7.9364393 C40.2205426,7.99846276 40.2665169,8.06048622 40.3083118,8.12664457 C49.3527221,20.6967326 55.3377477,44.1002516 54.9992092,80.2681988" id="Fill-27" fill="#000000" opacity="0.1976609"></path>
                                <path d="M74.8350136,80.2681988 L71.8383213,80.2681988 C76.0428854,46.3537707 73.3847315,22.8882282 66.4718597,9.21825748 C66.4593213,9.1851783 66.4426033,9.15623402 66.4258854,9.12315484 L68.01827,9.87570616 L69.9282956,10.7771138 L69.9617315,10.7936534 C77.1838854,24.1204276 79.6205264,45.613624 74.8350136,80.2681988" id="Fill-29" fill="#000000" opacity="0.196777344"></path>
                            </g>
                        </g>
                    </g>
                    <g id="Background-Object-/-Chair-/-2" transform="translate(0.000000, 226.000000)">
                        <g id="Group-14" transform="translate(0.311111, 0.351955)">
                            <path d="M95.615633,85.5196659 L95.615633,86.131733 C95.615633,91.2384369 91.6587441,95.3750514 86.7819568,95.3750514 L17.5855632,95.3750514 C6.91209016,95.3750514 -1.3018146,85.1214536 0.17120127,73.6322916 L7.98334095,9.61597877 C8.65982349,4.31385587 12.8284584,0.368604469 17.7545917,0.368604469 L38.2630235,0.368604469 C43.1858425,0.368604469 47.3541092,4.31385587 48.0346425,9.61597877 L55.8467822,73.6322916 C55.9064394,74.0894983 55.9487886,74.546705 55.9738298,75.0002246 L56.0158108,74.9928503 C56.0158108,74.9928503 57.4608394,85.5196659 70.8929029,85.5196659 L95.615633,85.5196659 Z" id="Fill-1" fill="#DCEEFF"></path>
                            <path d="M21.9504406,167.485693 C21.9504406,170.750665 19.3063771,173.39767 16.0454883,173.39767 C12.7842311,173.39767 10.1409041,170.750665 10.1409041,167.485693 C10.1409041,164.220721 12.7842311,161.573346 16.0454883,161.573346 C19.3063771,161.573346 21.9504406,164.220721 21.9504406,167.485693" id="Fill-4" fill="#B6D4FF"></path>
                            <path d="M75.8320356,168.671038 L17.4781435,168.671038 C15.2432102,168.671038 13.414461,166.839999 13.414461,164.602267 C13.414461,162.364535 15.2432102,160.533127 17.4781435,160.533127 L75.8320356,160.533127 C78.0669689,160.533127 79.8957181,162.364535 79.8957181,164.602267 C79.8957181,166.839999 78.0669689,168.671038 75.8320356,168.671038" id="Fill-6" fill="#CCE3FF"></path>
                            <polygon id="Fill-8" fill="#CCE3FF" points="43.660927 166.735911 49.649473 166.735911 49.649473 95.1284916 43.660927 95.1284916"></polygon>
                            <polygon id="Fill-10" fill="#CCE3FF" points="67.1744952 95.1286022 46.6550159 104.485116 26.1359048 95.1286022"></polygon>
                            <path d="M47.1089625,168.671038 L39.5369244,168.671038 C37.3016229,168.671038 35.4728737,166.839999 35.4728737,164.602267 C35.4728737,162.364535 37.3016229,160.533127 39.5369244,160.533127 L47.1089625,160.533127 C49.3438959,160.533127 51.1726451,162.364535 51.1726451,164.602267 C51.1726451,166.839999 49.3438959,168.671038 47.1089625,168.671038" id="Fill-11" fill="#B6D4FF"></path>
                            <path d="M42.1418425,167.485693 C42.1418425,170.750665 39.4981473,173.39767 36.2372584,173.39767 C32.975633,173.39767 30.332306,170.750665 30.332306,167.485693 C30.332306,164.220721 32.975633,161.573346 36.2372584,161.573346 C39.4981473,161.573346 42.1418425,164.220721 42.1418425,167.485693" id="Fill-12" fill="#B6D4FF"></path>
                            <path d="M83.5603606,167.485693 C83.5603606,170.750665 80.9166654,173.39767 77.6554083,173.39767 C74.3941511,173.39767 71.7508241,170.750665 71.7508241,167.485693 C71.7508241,164.220721 74.3941511,161.573346 77.6554083,161.573346 C80.9166654,161.573346 83.5603606,164.220721 83.5603606,167.485693" id="Fill-13" fill="#B6D4FF"></path>
                        </g>
                    </g>
                </g>
            </g>
        </g>
    </g>
</svg>