<?xml version="1.0" encoding="UTF-8"?>
<svg width="26px" height="118px" viewBox="0 0 26 118" version="1.1" xmlns="http://www.w3.org/2000/svg" xmlns:xlink="http://www.w3.org/1999/xlink">
    <title>Group 2</title>
    <desc>Created with Sketch.</desc>
    <g id="Page-1" stroke="none" stroke-width="1" fill="none" fill-rule="evenodd">
        <g id="Mockup" transform="translate(-1254.000000, -3344.000000)" fill="#FFFFFF" fill-rule="nonzero">
            <g id="Group-2" transform="translate(1254.000000, 3344.000000)">
                <path d="M25.4083333,51.25 C24.4583333,51.7 23.5083333,51.85 22.4,52 C23.5083333,51.4 24.3,50.5 24.6166667,49.3 C23.6666667,49.9 22.5583333,50.2 21.2916667,50.5 C20.3416667,49.6 18.9166667,49 17.4916667,49 C14.8,49 12.425,51.25 12.425,53.95 C12.425,54.4 12.425,54.7 12.5833333,55 C8.30833333,54.85 4.35,52.9 1.81666667,49.9 C1.34166667,50.65 1.18333333,51.4 1.18333333,52.45 C1.18333333,54.1 2.13333333,55.6 3.55833333,56.5 C2.76666667,56.5 1.975,56.2 1.18333333,55.9 C1.18333333,55.9 1.18333333,55.9 1.18333333,55.9 C1.18333333,58.3 2.925,60.25 5.3,60.7 C4.825,60.85 4.35,60.85 3.875,60.85 C3.55833333,60.85 3.24166667,60.85 2.925,60.7 C3.55833333,62.65 5.45833333,64.15 7.83333333,64.15 C6.09166667,65.5 3.875,66.25 1.34166667,66.25 C0.866666667,66.25 0.55,66.25 0.075,66.25 C2.45,67.6 5.14166667,68.5 7.99166667,68.5 C17.4916667,68.5 22.7166667,61 22.7166667,54.55 C22.7166667,54.4 22.7166667,54.1 22.7166667,53.95 C23.825,53.2 24.775,52.3 25.4083333,51.25 Z" id="Fill"></path>
                <path d="M9.61130583,25.3333333 L9.575,14.25 L4.825,14.25 L4.825,9.5 L9.575,9.5 L9.575,6.33333333 C9.575,2.0596 12.2215575,-1.50990331e-13 16.0340183,-1.50990331e-13 C17.8602192,-1.50990331e-13 19.4297617,0.135960833 19.887155,0.196729167 L19.887155,4.6630275 L17.24302,4.66423083 C15.1695975,4.66423083 14.7681275,5.64949167 14.7681275,7.09529667 L14.7681275,9.5 L20.6583333,9.5 L19.075,14.25 L14.7681117,14.25 L14.7681117,25.3333333 L9.61130583,25.3333333 Z" id="Fill"></path>
                <path d="M12.6666667,92 C5.7,92 3.0375702e-13,97.7 3.0375702e-13,104.666667 C3.0375702e-13,111.633333 5.7,117.333333 12.6666667,117.333333 C19.6333333,117.333333 25.3333333,111.633333 25.3333333,104.666667 C25.3333333,97.7 19.6333333,92 12.6666667,92 Z M16.15,103.716667 C16.15,103.716667 15.8333333,102.766667 15.675,102.45 C18.3666667,101.183333 20.1083333,99.7583333 20.7416667,98.9666667 C21.85,100.391667 22.4833333,102.133333 22.6416667,104.033333 C21.375,103.716667 18.525,103.241667 16.15,103.716667 Z M14.4083333,100.075 C13.1416667,97.8583333 11.7166667,95.9583333 11.0833333,94.85 C14.0916667,94.0583333 16.7833333,95.0083333 18.8416667,96.9083333 C18.2083333,97.7 16.9416667,98.9666667 14.4083333,100.075 Z M8.075,95.9583333 C8.70833333,96.75 9.975,98.65 11.2416667,101.025 C7.75833333,101.816667 4.59166667,101.975 3.16666667,101.975 C3.8,99.4416667 5.7,97.225 8.075,95.9583333 Z M12.6666667,103.558333 C12.825,103.875 12.9833333,104.191667 13.1416667,104.35 C8.70833333,105.775 5.85833333,109.416667 4.90833333,110.841667 C3.64166667,109.1 2.85,107.041667 2.85,104.983333 C4.275,104.825 8.39166667,104.666667 12.6666667,103.558333 Z M14.25,107.041667 C15.3583333,110.208333 15.9916667,112.741667 16.15,114.008333 C12.825,115.116667 9.025,114.483333 6.96666667,112.741667 C7.6,111.633333 9.65833333,108.783333 14.25,107.041667 Z M18.8416667,112.425 C18.525,111.158333 18.05,108.941667 17.1,106.25 C18.8416667,105.933333 21.375,106.25 22.325,106.566667 C21.85,108.941667 20.5833333,111 18.8416667,112.425 Z" id="Fill"></path>
            </g>
        </g>
    </g>
</svg>