<?xml version="1.0" encoding="UTF-8"?>
<svg width="575px" height="810px" viewBox="0 0 575 810" version="1.1" xmlns="http://www.w3.org/2000/svg" xmlns:xlink="http://www.w3.org/1999/xlink">
    <title>Man</title>
    <defs>
        <rect id="path-1" x="0" y="0" width="605" height="882"></rect>
        <linearGradient x1="72.4950354%" y1="4.38650559%" x2="50%" y2="86.0855931%" id="linearGradient-3">
            <stop stop-color="#FFFF68" offset="0%"></stop>
            <stop stop-color="#F9F9F9" offset="100%"></stop>
        </linearGradient>
    </defs>
    <g id="Page-1" stroke="none" stroke-width="1" fill="none" fill-rule="evenodd">
        <g id="Mockup" transform="translate(-865.000000, -1121.000000)">
            <g id="Group" transform="translate(835.000000, 1082.000000)">
                <mask id="mask-2" fill="white">
                    <use xlink:href="#path-1"></use>
                </mask>
                <g id="Mask"></g>
                <g mask="url(#mask-2)">
                    <g transform="translate(29.000000, 38.000000)">
                        <polygon id="Path" fill="url(#linearGradient-3)" points="132.762098 139 192.241258 152.003344 208 288 52 254.163573"></polygon>
                        <g id="Background-Object-/-Lamp" stroke-width="1" fill="none" transform="translate(96.000000, 0.000000)">
                            <g id="Group-17" transform="translate(0.175661, 0.446927)">
                                <path d="M354.142682,228.120255 C354.142682,228.120255 359.048959,202.566691 375.807939,204.203785 C410.770745,207.621841 367.947478,319.958802 439.892155,327.173182 C511.834352,334.386322 519.306627,221.853406 519.306627,221.853406" id="Stroke-1" stroke="#CCE3FF" stroke-width="7"></path>
                                <path d="M356.728523,153.316301 L356.728523,810.261429" id="Stroke-3" stroke="#DCEEFF" stroke-width="15"></path>
                                <path d="M519.306503,221.853158 L89.9824394,36.790733" id="Stroke-5" stroke="#DCEEFF" stroke-width="15"></path>
                                <path d="M274.047334,810.261677 L439.409713,810.261677 L439.409713,802.12085 C439.409713,791.592593 430.874576,783.057375 420.346419,783.057375 L293.109387,783.057375 C282.58247,783.057375 274.047334,791.592593 274.047334,802.12085 L274.047334,810.261677 Z" id="Fill-7" fill="#DCEEFF"></path>
                                <polygon id="Fill-10" fill="#B6D4FF" points="0.000496084656 131.186621 140.692585 161.81642 145.241681 122.505057 12.2054188 93.5421184"></polygon>
                                <path d="M62.8903881,72.2936179 L104.835586,81.4253832 L116.81107,26.4239531 C119.204678,15.4244112 112.228488,4.56501453 101.229051,2.17014302 L99.1169702,1.71002011 C88.1175331,-0.684851397 77.25824,6.29140559 74.8633913,17.2921877 L62.8903881,72.2936179 Z" id="Fill-12" fill="#B6D4FF"></path>
                                <polygon id="Fill-15" fill="#B6D4FF" points="145.242177 122.505057 103.504095 67.7702749 72.9204758 61.1115151 12.2046747 93.5421184"></polygon>
                            </g>
                        </g>
                        <g id="Background-Object-/-Chair-/-3" stroke-width="1" fill="none" transform="translate(79.000000, 485.000000)">
                            <g id="Group-16" transform="translate(0.253968, 0.770950)">
                                <polygon id="Fill-1" fill="#CCE3FF" points="67.4613429 138.065192 38.3881048 254.935317 45.1800095 254.935317 74.2537873 138.065192"></polygon>
                                <path d="M101.773981,195.951552 L117.85706,139.251603" id="Stroke-2" stroke="#B6D4FF" stroke-width="7"></path>
                                <path d="M89.1889619,139.25171 L131.095311,195.793702" id="Stroke-3" stroke="#B6D4FF" stroke-width="7"></path>
                                <path d="M89.1889619,139.25171 L29.0909937,195.16187" id="Fill-4" fill="#FFFFFF"></path>
                                <path d="M89.1889619,139.25171 L29.0909937,195.16187" id="Stroke-5" stroke="#B6D4FF" stroke-width="7"></path>
                                <polygon id="Fill-7" fill="#CCE3FF" points="114.313829 137.994838 142.968273 254.935048 149.661956 254.935048 121.008051 137.994838"></polygon>
                                <path d="M42.2402508,139.25171 L101.773711,195.16187" id="Stroke-8" stroke="#B6D4FF" stroke-width="7"></path>
                                <polygon id="Fill-9" fill="#DCEEFF" points="38.7818571 138.065192 9.70861905 254.935317 16.5005238 254.935317 45.5737619 138.065192"></polygon>
                                <polygon id="Fill-10" fill="#DCEEFF" points="85.6809714 138.065192 114.75421 254.935317 121.546114 254.935317 92.4728762 138.065192"></polygon>
                                <path d="M0.000107936508,125.040657 L0.000107936508,125.935573 C0.000107936508,133.402193 6.06020317,139.450425 13.5299492,139.450425 L119.50687,139.450425 C135.853854,139.450425 148.434394,124.458422 146.177981,107.659875 L134.213219,14.0602656 C133.177568,6.30791927 126.792584,0.53948352 119.248362,0.53948352 L87.8388381,0.53948352 C80.299473,0.53948352 73.9150286,6.30791927 72.8734413,14.0602656 L60.9081397,107.659875 C60.8163937,108.328366 60.7521714,108.996319 60.7143937,109.659958 L60.6496317,109.649176 C60.6496317,109.649176 58.4369333,125.040657 37.8642349,125.040657 L0.000107936508,125.040657 Z" id="Fill-11" fill="#DCEEFF"></path>
                                <path d="M113.367171,124.506834 L44.0881238,124.506834 C58.9024095,121.799982 60.650981,109.649068 60.650981,109.649068 L60.7152032,109.659851 C60.7535206,108.99675 60.8182825,108.328258 60.9100286,107.659767 L72.8747905,14.0601578 C73.9158381,6.30781145 80.3002825,0.539375698 87.8401873,0.539375698 L118.169806,0.539375698 C122.309711,0.539375698 125.78041,1.36366899 128.876568,4.13305726 L140.038283,92.7157444 C142.294156,109.514292 129.714156,124.506834 113.367171,124.506834" id="Fill-13" fill="#ECF6FF"></path>
                            </g>
                        </g>
                        <g id="Character-/-Man-/-1" stroke-width="1" fill="none" transform="translate(148.000000, 625.500000) scale(-1, 1) translate(-148.000000, -625.500000) translate(0.000000, 404.000000)">
                            <g id="Man-/-Head-/-7" transform="translate(95.597938, 0.198251)">
                                <g id="Group-25" transform="translate(18.906404, 20.891192)">
                                    <g id="Face-color" transform="translate(-0.000092, 16.216936)" fill="#5E93D1" fill-rule="nonzero">
                                        <path d="M35.3144446,57.843677 L34.8860452,43.0760259 C34.8860452,43.0760259 52.8585521,44.5048923 56.7033361,42.510686 C56.7033361,42.510686 61.4017657,18.3377931 55.7978861,4.95133455 L55.684367,4.43007043 L17.757724,0 L15.3981686,21.4677707 C14.1206282,17.705584 3.81064056,13.7017356 1.05419847,19.0897806 C-4.91861826,30.7649277 16.4373887,38.6261664 16.4373887,38.6261664 L14.2692638,58.0213295" id="Face"></path>
                                    </g>
                                    <polygon id="Fill-4" fill="#000000" opacity="0.400274368" points="34.8860878 59.2927373 22.7674728 56.6981102 34.8279768 64.8332487"></polygon>
                                    <polygon id="Fill-6" fill="#2437A8" points="44.8829316 35.1602322 49.0705253 45.3831257 44.0518096 45.4469906"></polygon>
                                    <path d="M40.1081018,38.0654139 C40.3576636,39.4421089 39.4418528,40.7594364 38.062956,41.0085998 C36.6845097,41.2577631 35.3646249,40.3434146 35.1155135,38.9671693 C34.8659517,37.5904744 35.7813121,36.2726971 37.1602088,36.0235337 C38.5391056,35.7748201 39.85854,36.6887189 40.1081018,38.0654139" id="Fill-8" fill="#0D0B6D"></path>
                                    <path d="M53.2796065,38.0654139 C53.5291683,39.4421089 52.6133574,40.7594364 51.2344607,41.0085998 C49.8560144,41.2577631 48.5361296,40.3434146 48.2870182,38.9671693 C48.0374564,37.5904744 48.9528168,36.2726971 50.3317135,36.0235337 C51.7106103,35.7748201 53.0300446,36.6887189 53.2796065,38.0654139" id="Fill-10" fill="#0D0B6D"></path>
                                    <g id="Group-15" transform="translate(39.641592, 48.152392)">
                                        <path d="M0.0341007789,0.189256207 C0.0341007789,0.189256207 1.78824124,3.02944857 5.26273671,2.78883053" id="Fill-12" fill="#FFFFFF"></path>
                                        <path d="M0.0341007789,0.189256207 C0.0341007789,0.189256207 1.78824124,3.02944857 5.26273671,2.78883053" id="Stroke-14" stroke="#252535" stroke-width="4"></path>
                                    </g>
                                    <path d="M15.6271706,37.9134208 C12.795152,34.9816441 9.71291363,33.7395155 7.84332877,33.223614 L8.19999852,25.824792 L26.015741,22.7228432 C24.788062,30.9770669 20.019383,35.4804555 15.6271706,37.9134208 L15.6271706,37.9134208 Z" id="Path" fill="#EACB47"></path>
                                    <path d="M56.8492868,24.0547427 C55.2442528,22.5300789 44.7829267,22.0578379 32.2075324,23.0248076 C29.2826136,23.2496842 26.4784214,23.5330288 23.8855009,23.8613488 C15.313457,24.9362593 9.00638959,26.4654206 7.97976244,27.8101831 C6.84096761,11.0073982 17.1473311,1.00038636 30.6412391,0.0693969408 C39.4939274,-0.542267606 47.5222508,2.90734054 52.3278929,10.094399 C54.7870231,13.7778788 56.4051208,18.4463185 56.8492868,24.0547427" id="Fill-18" fill="#393954"></path>
                                    <path d="M57.0520896,24.3874702 L57.0475849,24.3874702 C57.0304669,24.2705344 56.9615446,24.158096 56.8493769,24.0546528 C55.2443429,22.5299889 44.7830168,22.0577479 32.2076225,23.0247176 C29.2822532,23.2495943 26.4785115,23.5329389 23.885591,23.8612588 C27.574061,20.3621778 34.3212402,14.8302117 42.2806412,12.3475733 C45.6844125,11.2861554 49.1359339,10.5125796 52.327983,10.094309 C60.0761124,9.06887138 66.2926349,10.1212942 66.603461,14.1375916 C67.0043816,19.3637254 58.3895429,23.7398254 57.0520896,24.3874702" id="Fill-22" fill="#161629"></path>
                                </g>
                            </g>
                            <g id="Man-/-Body-/-4" transform="translate(66.315169, 71.072886)">
                                <g id="Group-17" transform="translate(9.948718, 15.272727)">
                                    <g id="Hands" transform="translate(-0.000018, 103.375474)" fill="#5E93D1" fill-rule="nonzero">
                                        <path d="M105.024057,3.69944868 C106.298985,0.810932551 112.999447,7.10542736e-15 112.999447,7.10542736e-15 C112.999447,7.10542736e-15 123.691832,11.8545924 124.648401,13.6646569 C125.605467,15.4747214 127.375344,24.437349 127.291278,26.208 C127.206714,27.978651 121.692637,35.9352493 121.692637,35.9352493 C118.271273,35.1277654 120.505755,31.0189091 120.505755,31.0189091 C120.505755,31.0189091 117.441052,33.5147683 116.166621,33.4728915 C104.16797,33.0787566 104.810657,27.2273314 105.095191,26.4952258 C105.732406,24.8492199 108.934898,26.7312141 108.934898,26.7312141 C108.934898,26.7312141 101.375862,11.9610088 105.024057,3.69944868 Z M17.9412377,6.0821912 L20.1165249,10.1959742 C20.1165249,10.1959742 21.2263044,12.0907777 22.3883146,15.3975695 C23.5498275,18.704854 23.0673146,20.7277513 25.5803608,25.9224493 C28.4331557,31.8187073 23.3304582,29.3873877 21.5003916,26.8136868 C20.0727505,24.8045842 20.2344172,22.0894874 18.3834582,20.8725959 C17.7631557,21.8584258 16.3454634,23.2689361 15.5545403,31.7763378 C15.4127711,33.3016399 16.1066941,38.2509889 16.1066941,38.2509889 C16.1221146,39.7344141 16.31313,42.8264023 14.6183659,43.2988716 C14.19853,43.415634 13.651848,42.9535109 13.651848,42.9535109 C13.651848,42.9535109 13.8160018,44.8887132 12.0844275,45.2739801 C11.4029403,45.4252293 10.051407,41.2469067 10.051407,41.2469067 C10.051407,41.2469067 9.84497105,43.3688305 8.55163772,43.6048188 C8.18602234,43.671329 3.86927362,31.5654757 3.86927362,31.5654757 L4.12893516,34.2997865 L4.70198131,37.100115 C4.70198131,37.100115 4.65571977,38.6076809 3.44048388,38.8742147 C2.95797105,38.9801384 2.03174541,36.4655578 1.16371977,33.508068 C-0.186321253,28.9055578 -0.158962278,25.447024 0.237991568,22.0077044 C0.718017209,17.8510592 0.504119773,16.455329 2.36154541,11.3581795 C3.12809413,9.25546979 4.797489,6.07775718 5.68242747,4.72291848 L17.9412377,6.0821912 Z"></path>
                                    </g>
                                    <path d="M111.384802,114.048795 C111.384802,114.048795 113.068622,120.174144 118.847335,122.083235 C120.867422,122.750801 120.363022,130.629558 125.315494,129.687083" id="Stroke-4" stroke="#000000" stroke-width="3" opacity="0.145089286"></path>
                                    <g id="Sweater" fill="#CE3D29" fill-rule="nonzero">
                                        <path d="M49.658411,9.4819467 L50.2532626,0.000246334311 L77.8853292,1.69946041 L77.3460381,10.3011154 C92.8527284,16.2159464 94.1922276,21.9928625 97.9051841,29.5871155 C101.971225,37.9048399 106.186994,63.4487226 106.186994,63.4487226 L123.845969,107.542564 L102.197558,119.474998 L96.8739995,109.263456 L97.0073123,95.6367343 L30.8557995,95.6347636 L30.3931841,78.8544704 L24.7572354,112.513591 L0.0147738462,113.671362 C0.0147738462,113.671362 -0.475200513,78.6170041 4.23601487,58.338271 C7.2350559,45.4209924 21.8895174,21.4186698 35.7659892,13.1649924 C39.1544259,11.14923 44.2409288,10.0449524 49.658411,9.4819467 L49.658411,9.4819467 Z"></path>
                                    </g>
                                    <polyline id="Stroke-11" stroke="#000000" stroke-width="5" opacity="0.203543527" points="30.4975462 82.6452598 35.0510744 59.096685 46.3140179 40.1984094"></polyline>
                                    <path d="M96.0123908,95.7353666 L98.163801,61.4219824" id="Stroke-13" stroke="#000000" stroke-width="5" opacity="0.198800223"></path>
                                </g>
                            </g>
                            <g id="Man-/-Legs-/-1" transform="translate(0.304860, 89.411079)">
                                <g id="Group-15" transform="translate(106.596639, 90.222067)">
                                    <g id="Shoes" transform="translate(41.647059, 128.387152)" fill="#0D0B6D" fill-rule="nonzero">
                                        <path d="M109.929643,8.44924933 L109.787845,21.4586308 C109.787845,21.4586308 137.146987,26.0528823 146.421391,37.190147 L91.9133235,37.190147 L94.1969706,1.42108547e-14 L109.929643,8.44924933 Z M22.6497529,5.46978501 L22.4995261,20.9436751 C22.4995261,20.9436751 34.7031059,22.6427223 39.6700134,37.0668227 L0.16232437,37.0668227 L4.11334118,20.0882176 L5.65924034,4.61037169 L22.6497529,5.46978501 Z"></path>
                                    </g>
                                    <g id="Skin-legs" transform="translate(45.613445, 128.071375)" fill="#5E93D1" fill-rule="nonzero">
                                        <path d="M90.2303857,3.72504741 L105.963058,8.76482907 L105.82126,21.7742105 L88.9621336,20.966718 L90.2303857,3.72504741 Z M2.02231176,0.447606982 L18.6831185,5.78556253 L18.5333874,21.2594526 L0.146706723,20.4039951 L2.02231176,0.447606982 Z" id="Skin"></path>
                                    </g>
                                    <g id="Pants" transform="translate(-0.000099, 0.000000)" fill="#19141E" fill-rule="nonzero">
                                        <path d="M82.6604622,39.7043513 L72.0037983,142.329081 L43.3456639,142.329081 L48.195563,39.7043513 L27.8722941,39.7043513 C12.4787479,39.7043513 -4.26325641e-14,27.3981262 -4.26325641e-14,12.2169707 L-4.26325641e-14,0.000247242036 L54.3311168,0.000247242036 L141.132561,0.000247242036 C161.058696,0.000247242036 176.478519,17.3813624 174.012914,37.0647953 L160.246578,142.329081 L131.098595,142.329081 L132.440721,39.7043513 L82.6604622,39.7043513 Z"></path>
                                    </g>
                                    <g id="Overlay" transform="translate(-0.000099, 0.000247)" fill="#FFFFFF" opacity="0.101632254">
                                        <path d="M-4.26325641e-14,-2.84217094e-14 L62.5628067,-2.84217094e-14 C75.4872773,-2.84217094e-14 85.5921429,10.9953478 84.3243866,23.6803477 L72.0037983,142.328834 L43.3456639,142.328834 L48.195563,39.704104 L27.8722941,39.704104 C12.4787479,39.704104 -4.26325641e-14,27.397879 -4.26325641e-14,12.2167235 L-4.26325641e-14,-2.84217094e-14 Z" id="Mask"></path>
                                    </g>
                                </g>
                            </g>
                        </g>
                    </g>
                </g>
            </g>
        </g>
    </g>
</svg>